<svg width="80" height="27" viewBox="0 0 80 27" fill="none" xmlns="http://www.w3.org/2000/svg">
<path d="M10.098 11.216C10.098 11.852 9.948 12.452 9.648 13.016C9.348 13.58 8.868 14.042 8.208 14.402C7.548 14.75 6.702 14.924 5.67 14.924H3.402V20H1.35V7.49H5.67C6.63 7.49 7.44 7.658 8.1 7.994C8.772 8.318 9.27 8.762 9.594 9.326C9.93 9.89 10.098 10.52 10.098 11.216ZM5.67 13.25C6.45 13.25 7.032 13.076 7.416 12.728C7.8 12.368 7.992 11.864 7.992 11.216C7.992 9.848 7.218 9.164 5.67 9.164H3.402V13.25H5.67ZM21.0371 10.082V20H18.9851V18.83C18.6611 19.238 18.2351 19.562 17.7071 19.802C17.1911 20.03 16.6391 20.144 16.0511 20.144C15.2711 20.144 14.5691 19.982 13.9451 19.658C13.3331 19.334 12.8471 18.854 12.4871 18.218C12.1391 17.582 11.9651 16.814 11.9651 15.914V10.082H13.9991V15.608C13.9991 16.496 14.2211 17.18 14.6651 17.66C15.1091 18.128 15.7151 18.362 16.4831 18.362C17.2511 18.362 17.8571 18.128 18.3011 17.66C18.7571 17.18 18.9851 16.496 18.9851 15.608V10.082H21.0371ZM25.7965 6.68V20H23.7445V6.68H25.7965ZM27.8066 14.996C27.8066 14 28.0106 13.118 28.4186 12.35C28.8386 11.582 29.4026 10.988 30.1106 10.568C30.8306 10.136 31.6226 9.92 32.4866 9.92C33.2666 9.92 33.9446 10.076 34.5206 10.388C35.1086 10.688 35.5766 11.066 35.9246 11.522V10.082H37.9946V20H35.9246V18.524C35.5766 18.992 35.1026 19.382 34.5026 19.694C33.9026 20.006 33.2186 20.162 32.4506 20.162C31.5986 20.162 30.8186 19.946 30.1106 19.514C29.4026 19.07 28.8386 18.458 28.4186 17.678C28.0106 16.886 27.8066 15.992 27.8066 14.996ZM35.9246 15.032C35.9246 14.348 35.7806 13.754 35.4926 13.25C35.2166 12.746 34.8506 12.362 34.3946 12.098C33.9386 11.834 33.4466 11.702 32.9186 11.702C32.3906 11.702 31.8986 11.834 31.4426 12.098C30.9866 12.35 30.6146 12.728 30.3266 13.232C30.0506 13.724 29.9126 14.312 29.9126 14.996C29.9126 15.68 30.0506 16.28 30.3266 16.796C30.6146 17.312 30.9866 17.708 31.4426 17.984C31.9106 18.248 32.4026 18.38 32.9186 18.38C33.4466 18.38 33.9386 18.248 34.3946 17.984C34.8506 17.72 35.2166 17.336 35.4926 16.832C35.7806 16.316 35.9246 15.716 35.9246 15.032ZM42.7418 11.522C43.0418 11.018 43.4378 10.628 43.9298 10.352C44.4338 10.064 45.0278 9.92 45.7118 9.92V12.044H45.1898C44.3858 12.044 43.7738 12.248 43.3538 12.656C42.9458 13.064 42.7418 13.772 42.7418 14.78V20H40.6898V10.082H42.7418V11.522Z" fill="black"/>
<path d="M70.999 13.5017L59.749 13.5017" stroke="black" stroke-width="1.8" stroke-linecap="round" stroke-linejoin="round"/>
<path d="M66.499 19.1267L72.124 13.5017" stroke="black" stroke-width="1.8" stroke-linecap="round" stroke-linejoin="round"/>
<path d="M66.499 7.87634L72.124 13.5013" stroke="black" stroke-width="1.8" stroke-linecap="round" stroke-linejoin="round"/>
</svg>
